<svg xmlns="http://www.w3.org/2000/svg" xmlns:xlink="http://www.w3.org/1999/xlink" width="300" zoomAndPan="magnify" viewBox="0 0 224.87999 94.499997" height="126" preserveAspectRatio="xMidYMid meet" version="1.0"><defs><g/><clipPath id="32a6f90e79"><path d="M 0.53125 0 L 224.226562 0 L 224.226562 94.003906 L 0.53125 94.003906 Z M 0.53125 0 " clip-rule="nonzero"/></clipPath><clipPath id="2eff7e91ab"><path d="M 23 53 L 52 53 L 52 83.667969 L 23 83.667969 Z M 23 53 " clip-rule="nonzero"/></clipPath><clipPath id="440de55b50"><path d="M 22 52 L 53 52 L 53 83.667969 L 22 83.667969 Z M 22 52 " clip-rule="nonzero"/></clipPath><clipPath id="6d18e260b6"><path d="M 26 55 L 38 55 L 38 83.667969 L 26 83.667969 Z M 26 55 " clip-rule="nonzero"/></clipPath><clipPath id="cd112a3453"><path d="M 25 55 L 39 55 L 39 83.667969 L 25 83.667969 Z M 25 55 " clip-rule="nonzero"/></clipPath><clipPath id="d42fd1aa35"><path d="M 41 55 L 53 55 L 53 83.667969 L 41 83.667969 Z M 41 55 " clip-rule="nonzero"/></clipPath><clipPath id="bdedefc3c5"><path d="M 40 54 L 53 54 L 53 83.667969 L 40 83.667969 Z M 40 54 " clip-rule="nonzero"/></clipPath><clipPath id="00c37c70a0"><path d="M 36 72 L 48 72 L 48 83.667969 L 36 83.667969 Z M 36 72 " clip-rule="nonzero"/></clipPath><clipPath id="eee6a83a15"><path d="M 35 71 L 48 71 L 48 83.667969 L 35 83.667969 Z M 35 71 " clip-rule="nonzero"/></clipPath><clipPath id="2a103ab572"><path d="M 37 74 L 48 74 L 48 83.667969 L 37 83.667969 Z M 37 74 " clip-rule="nonzero"/></clipPath><clipPath id="f02da1e0d1"><path d="M 36 73 L 48 73 L 48 83.667969 L 36 83.667969 Z M 36 73 " clip-rule="nonzero"/></clipPath><clipPath id="5cc5157f7a"><path d="M 8.347656 13 L 46 13 L 46 62 L 8.347656 62 Z M 8.347656 13 " clip-rule="nonzero"/></clipPath><clipPath id="b7153704d0"><path d="M 22 78 L 56 78 L 56 83.667969 L 22 83.667969 Z M 22 78 " clip-rule="nonzero"/></clipPath><clipPath id="c763ec396b"><path d="M 22 77 L 56 77 L 56 83.667969 L 22 83.667969 Z M 22 77 " clip-rule="nonzero"/></clipPath><clipPath id="ec353c5465"><path d="M 8.347656 83 L 67.285156 83 L 67.285156 83.667969 L 8.347656 83.667969 Z M 8.347656 83 " clip-rule="nonzero"/></clipPath><clipPath id="c6ba5dfcfc"><path d="M 8.347656 82 L 67.285156 82 L 67.285156 83.667969 L 8.347656 83.667969 Z M 8.347656 82 " clip-rule="nonzero"/></clipPath><clipPath id="e093211580"><path d="M 0.535156 9.585938 L 75.136719 9.585938 L 75.136719 84.191406 L 0.535156 84.191406 Z M 0.535156 9.585938 " clip-rule="nonzero"/></clipPath><clipPath id="b79244e589"><path d="M 73.925781 9.585938 L 223.136719 9.585938 L 223.136719 84.191406 L 73.925781 84.191406 Z M 73.925781 9.585938 " clip-rule="nonzero"/></clipPath></defs><g clip-path="url(#32a6f90e79)"><path fill="#ffffff" d="M 0.53125 0 L 224.347656 0 L 224.347656 94.003906 L 0.53125 94.003906 Z M 0.53125 0 " fill-opacity="1" fill-rule="nonzero"/></g><g clip-path="url(#2eff7e91ab)"><path fill="#ffffff" d="M 31.386719 53.667969 L 23.394531 61.039062 C 32.140625 71.066406 24.453125 90.214844 24.453125 90.214844 L 51.414062 80.292969 C 48.039062 66.226562 51.898438 61.039062 51.898438 61.039062 L 31.386719 53.667969 " fill-opacity="1" fill-rule="nonzero"/></g><g clip-path="url(#440de55b50)"><path stroke-linecap="round" transform="matrix(-0.0549505, 0, 0, -0.0549505, 153.444425, 193.295782)" fill="none" stroke-linejoin="round" d="M 2221.230648 2540.974982 L 2366.674081 2406.834337 C 2207.51091 2224.354722 2347.409579 1875.88761 2347.409579 1875.88761 L 1856.769023 2056.447884 C 1918.187951 2312.43117 1847.95427 2406.834337 1847.95427 2406.834337 Z M 2221.230648 2540.974982 " stroke="#181821" stroke-width="30" stroke-opacity="1" stroke-miterlimit="10"/></g><g clip-path="url(#6d18e260b6)"><path fill="#ffffff" d="M 37.527344 88.898438 L 34.796875 89.574219 L 26.652344 56.636719 L 29.378906 55.960938 L 37.527344 88.898438 " fill-opacity="1" fill-rule="nonzero"/></g><g clip-path="url(#cd112a3453)"><path stroke-linecap="round" transform="matrix(-0.0549505, 0, 0, -0.0549505, 153.444425, 193.295782)" fill="none" stroke-linejoin="round" d="M 2109.48232 1899.843835 L 2159.171939 1887.545833 L 2307.387755 2486.949073 L 2257.769223 2499.247076 Z M 2109.48232 1899.843835 " stroke="#181821" stroke-width="30" stroke-opacity="1" stroke-miterlimit="10"/></g><g clip-path="url(#d42fd1aa35)"><path fill="#ffffff" d="M 52.007812 88.070312 L 49.277344 88.746094 L 41.128906 55.808594 L 43.859375 55.132812 L 52.007812 88.070312 " fill-opacity="1" fill-rule="nonzero"/></g><g clip-path="url(#bdedefc3c5)"><path stroke-linecap="round" transform="matrix(-0.0549505, 0, 0, -0.0549505, 153.444425, 193.295782)" fill="none" stroke-linejoin="round" d="M 1845.963842 1914.914221 L 1895.65346 1902.616218 L 2043.940363 2502.019458 L 1994.250744 2514.317461 Z M 1845.963842 1914.914221 " stroke="#181821" stroke-width="30" stroke-opacity="1" stroke-miterlimit="10"/></g><g clip-path="url(#00c37c70a0)"><path fill="#ffffff" d="M 36.054688 78.101562 C 36.054688 81.148438 38.523438 83.613281 41.5625 83.613281 C 44.609375 83.613281 47.074219 81.148438 47.074219 78.101562 C 47.074219 75.058594 44.609375 72.59375 41.5625 72.59375 C 38.523438 72.59375 36.054688 75.058594 36.054688 78.101562 " fill-opacity="1" fill-rule="nonzero"/></g><g clip-path="url(#eee6a83a15)"><path stroke-linecap="round" transform="matrix(-0.0549505, 0, 0, -0.0549505, 153.444425, 193.295782)" fill="none" stroke-linejoin="round" d="M 2136.282015 2096.327535 C 2136.282015 2040.879892 2091.355206 1996.02417 2036.049737 1996.02417 C 1980.602093 1996.02417 1935.746372 2040.879892 1935.746372 2096.327535 C 1935.746372 2151.704092 1980.602093 2196.559813 2036.049737 2196.559813 C 2091.355206 2196.559813 2136.282015 2151.704092 2136.282015 2096.327535 Z M 2136.282015 2096.327535 " stroke="#181821" stroke-width="30" stroke-opacity="1" stroke-miterlimit="10"/></g><g clip-path="url(#2a103ab572)"><path fill="#ffffff" d="M 44.546875 75.058594 C 44.847656 74.761719 45.109375 74.441406 45.355469 74.113281 C 46.410156 75.117188 47.074219 76.53125 47.074219 78.101562 C 47.074219 81.148438 44.609375 83.613281 41.5625 83.613281 C 40.027344 83.613281 38.640625 82.980469 37.640625 81.96875 C 39.941406 79.664062 42.246094 77.363281 44.546875 75.058594 " fill-opacity="1" fill-rule="nonzero"/></g><g clip-path="url(#f02da1e0d1)"><path stroke-linecap="round" transform="matrix(-0.0549505, 0, 0, -0.0549505, 153.444425, 193.295782)" fill="none" stroke-linejoin="round" d="M 1981.739481 2151.704092 C 1976.265803 2157.106683 1971.502993 2162.935794 1967.024529 2168.907079 C 1947.831114 2150.637791 1935.746372 2124.904398 1935.746372 2096.327535 C 1935.746372 2040.879892 1980.602093 1996.02417 2036.049737 1996.02417 C 2063.986818 1996.02417 2089.222605 2007.540219 2107.420805 2025.95168 C 2065.550726 2067.892846 2023.60956 2109.762926 1981.739481 2151.704092 Z M 1981.739481 2151.704092 " stroke="#181821" stroke-width="30" stroke-opacity="1" stroke-miterlimit="10"/></g><path fill="#ffffff" d="M 39.5625 78.101562 C 39.5625 79.210938 40.457031 80.105469 41.5625 80.105469 C 42.667969 80.105469 43.566406 79.210938 43.566406 78.101562 C 43.566406 76.996094 42.667969 76.101562 41.5625 76.101562 C 40.457031 76.101562 39.5625 76.996094 39.5625 78.101562 " fill-opacity="1" fill-rule="nonzero"/><path stroke-linecap="round" transform="matrix(-0.0549505, 0, 0, -0.0549505, 153.444425, 193.295782)" fill="none" stroke-linejoin="round" d="M 2072.446138 2096.327535 C 2072.446138 2076.138906 2056.167279 2059.860047 2036.049737 2059.860047 C 2015.932194 2059.860047 1999.582248 2076.138906 1999.582248 2096.327535 C 1999.582248 2116.445078 2015.932194 2132.723937 2036.049737 2132.723937 C 2056.167279 2132.723937 2072.446138 2116.445078 2072.446138 2096.327535 Z M 2072.446138 2096.327535 " stroke="#181821" stroke-width="30" stroke-opacity="1" stroke-miterlimit="10"/><path fill="#ffffff" d="M 35.476562 14.902344 C 40.851562 13.746094 52.714844 16.941406 56.949219 20.371094 C 66.535156 28.136719 69.171875 44.414062 62.207031 55.824219 C 60.679688 58.324219 57.277344 60.824219 54.242188 61.039062 C 54.230469 61.042969 27.367188 62.957031 24.382812 39.074219 C 24.382812 39.074219 22.890625 17.601562 35.476562 14.902344 " fill-opacity="1" fill-rule="nonzero"/><path stroke-linecap="round" transform="matrix(-0.0549505, 0, 0, -0.0549505, 153.444425, 193.295782)" fill="none" stroke-linejoin="round" d="M 2146.80285 3246.439612 C 2048.98752 3267.481282 1833.097145 3209.332343 1756.039138 3146.918201 C 1581.592322 3005.597798 1533.608785 2709.379427 1660.35641 2501.735111 C 1688.151319 2456.239609 1750.067854 2410.744107 1805.302237 2406.834337 C 1805.515497 2406.763251 2294.378885 2371.930757 2348.68914 2806.554976 C 2348.68914 2806.554976 2375.844268 3197.318687 2146.80285 3246.439612 Z M 2146.80285 3246.439612 " stroke="#181821" stroke-width="30" stroke-opacity="1" stroke-miterlimit="10"/><path fill="#ffffff" d="M 40.535156 42.199219 L 48.949219 42.199219 C 49.769531 44.621094 50.6875 47.023438 51.75 49.351562 C 50.011719 50.273438 48.035156 50.796875 45.929688 50.796875 C 42.097656 50.796875 38.675781 49.066406 36.394531 46.339844 C 37.777344 44.960938 39.15625 43.578125 40.535156 42.199219 " fill-opacity="1" fill-rule="nonzero"/><path stroke-linecap="round" transform="matrix(-0.0549505, 0, 0, -0.0549505, 153.444425, 193.295782)" fill="none" stroke-linejoin="round" d="M 2054.745544 2749.685598 L 1901.624745 2749.685598 C 1886.696533 2705.61183 1869.991154 2661.893496 1850.655565 2619.52581 C 1882.289157 2602.749343 1918.259038 2593.223723 1956.574781 2593.223723 C 2026.310856 2593.223723 2088.582824 2624.715141 2130.09747 2674.333673 C 2104.93277 2699.427285 2079.839157 2724.591985 2054.745544 2749.685598 Z M 2054.745544 2749.685598 " stroke="#181821" stroke-width="30" stroke-opacity="1" stroke-miterlimit="10"/><path fill="#ffffff" d="M 40.535156 28.96875 L 48.949219 28.96875 C 49.769531 26.546875 50.6875 24.148438 51.75 21.816406 C 50.011719 20.894531 48.035156 20.371094 45.929688 20.371094 C 42.097656 20.371094 38.675781 22.101562 36.394531 24.828125 C 37.777344 26.210938 39.15625 27.589844 40.535156 28.96875 " fill-opacity="1" fill-rule="nonzero"/><path stroke-linecap="round" transform="matrix(-0.0549505, 0, 0, -0.0549505, 153.444425, 193.295782)" fill="none" stroke-linejoin="round" d="M 2054.745544 2990.456326 L 1901.624745 2990.456326 C 1886.696533 3034.530093 1869.991154 3078.177341 1850.655565 3120.616114 C 1882.289157 3137.39258 1918.259038 3146.918201 1956.574781 3146.918201 C 2026.310856 3146.918201 2088.582824 3115.426783 2130.09747 3065.808251 C 2104.93277 3040.643552 2079.839157 3015.549939 2054.745544 2990.456326 Z M 2054.745544 2990.456326 " stroke="#181821" stroke-width="30" stroke-opacity="1" stroke-miterlimit="10"/><path fill="#ffffff" d="M 55.582031 32.957031 L 51.75 40.441406 C 53.53125 42.277344 55.25 44.191406 56.839844 46.199219 C 58.449219 45.074219 59.820312 43.550781 60.78125 41.675781 C 62.523438 38.265625 62.542969 34.429688 61.15625 31.160156 C 59.300781 31.757812 57.441406 32.355469 55.582031 32.957031 " fill-opacity="1" fill-rule="nonzero"/><path stroke-linecap="round" transform="matrix(-0.0549505, 0, 0, -0.0549505, 153.444425, 193.295782)" fill="none" stroke-linejoin="round" d="M 1780.919491 2917.876782 L 1850.655565 2781.674623 C 1818.24002 2748.263864 1786.961862 2713.43137 1758.029566 2676.892795 C 1728.741837 2697.365771 1703.790397 2725.089592 1686.303064 2759.211219 C 1654.598386 2821.269927 1654.242952 2891.077088 1679.478739 2950.576675 C 1713.244931 2939.700406 1747.082211 2928.824138 1780.919491 2917.876782 Z M 1780.919491 2917.876782 " stroke="#181821" stroke-width="30" stroke-opacity="1" stroke-miterlimit="10"/><path fill="#ffffff" d="M 33.496094 35.390625 C 33.496094 42.257812 39.0625 47.824219 45.929688 47.824219 C 52.796875 47.824219 58.363281 42.257812 58.363281 35.390625 C 58.363281 28.523438 52.796875 22.957031 45.929688 22.957031 C 39.0625 22.957031 33.496094 28.523438 33.496094 35.390625 " fill-opacity="1" fill-rule="nonzero"/><path stroke-linecap="round" transform="matrix(-0.0549505, 0, 0, -0.0549505, 153.444425, 193.295782)" fill="none" stroke-linejoin="round" d="M 2182.843818 2873.589755 C 2182.843818 2748.619297 2081.545239 2647.320718 1956.574781 2647.320718 C 1831.604324 2647.320718 1730.305745 2748.619297 1730.305745 2873.589755 C 1730.305745 2998.560212 1831.604324 3099.858791 1956.574781 3099.858791 C 2081.545239 3099.858791 2182.843818 2998.560212 2182.843818 2873.589755 Z M 2182.843818 2873.589755 " stroke="#181821" stroke-width="30" stroke-opacity="1" stroke-miterlimit="10"/><path fill="#ffffff" d="M 38.683594 35.390625 C 38.683594 39.394531 41.925781 42.636719 45.929688 42.636719 C 49.929688 42.636719 53.175781 39.394531 53.175781 35.390625 C 53.175781 31.390625 49.929688 28.144531 45.929688 28.144531 C 41.925781 28.144531 38.683594 31.390625 38.683594 35.390625 " fill-opacity="1" fill-rule="nonzero"/><path stroke-linecap="round" transform="matrix(-0.0549505, 0, 0, -0.0549505, 153.444425, 193.295782)" fill="none" stroke-linejoin="round" d="M 2088.440651 2873.589755 C 2088.440651 2800.725864 2029.438671 2741.723885 1956.574781 2741.723885 C 1883.781978 2741.723885 1824.708912 2800.725864 1824.708912 2873.589755 C 1824.708912 2946.382558 1883.781978 3005.455624 1956.574781 3005.455624 C 2029.438671 3005.455624 2088.440651 2946.382558 2088.440651 2873.589755 Z M 2088.440651 2873.589755 " stroke="#181821" stroke-width="30" stroke-opacity="1" stroke-miterlimit="10"/><path fill="#ffffff" d="M 42.550781 35.390625 C 42.550781 37.253906 44.0625 38.769531 45.929688 38.769531 C 47.796875 38.769531 49.308594 37.253906 49.308594 35.390625 C 49.308594 33.523438 47.796875 32.011719 45.929688 32.011719 C 44.0625 32.011719 42.550781 33.523438 42.550781 35.390625 " fill-opacity="1" fill-rule="nonzero"/><path stroke-linecap="round" transform="matrix(-0.0549505, 0, 0, -0.0549505, 153.444425, 193.295782)" fill="none" stroke-linejoin="round" d="M 2018.064796 2873.589755 C 2018.064796 2839.681388 1990.554234 2812.09974 1956.574781 2812.09974 C 1922.595328 2812.09974 1895.084767 2839.681388 1895.084767 2873.589755 C 1895.084767 2907.569208 1922.595328 2935.079769 1956.574781 2935.079769 C 1990.554234 2935.079769 2018.064796 2907.569208 2018.064796 2873.589755 Z M 2018.064796 2873.589755 " stroke="#181821" stroke-width="30" stroke-opacity="1" stroke-miterlimit="10"/><path fill="#ffffff" d="M 9.699219 46.363281 L 9.523438 45.128906 C 9.523438 45.128906 11.957031 43.171875 13.042969 41.148438 C 13.042969 41.148438 14.710938 37.253906 15.585938 34.375 C 16.339844 31.4375 17.503906 28.472656 19.078125 25.183594 C 23.253906 16.457031 26.746094 12.300781 34.945312 14.960938 C 37.976562 15.941406 40.585938 18.472656 42.546875 21.957031 C 38.671875 24.246094 36.027344 28.46875 36.027344 33.21875 C 36.027344 38.902344 39.8125 43.828125 44.960938 45.59375 C 41.308594 50.738281 37.375 56.003906 32.578125 59.753906 C 32.023438 60.183594 31.476562 60.613281 30.925781 61.039062 L 16.582031 61.039062 C 16.582031 61.039062 13.800781 61.445312 13.800781 59.867188 L 14.785156 46.832031 C 14.785156 46.816406 14.78125 46.804688 14.78125 46.792969 L 9.699219 46.363281 " fill-opacity="1" fill-rule="nonzero"/><g clip-path="url(#5cc5157f7a)"><path stroke-linecap="round" transform="matrix(-0.0549505, 0, 0, -0.0549505, 153.444425, 193.295782)" fill="none" stroke-linejoin="round" d="M 2615.904129 2673.907152 L 2619.103031 2696.370556 C 2619.103031 2696.370556 2574.816003 2731.985004 2555.053894 2768.807926 C 2555.053894 2768.807926 2524.699864 2839.681388 2508.776438 2892.072302 C 2495.056701 2945.529517 2473.872858 2999.484339 2445.224909 3059.339359 C 2369.233203 3218.147097 2305.681673 3293.783369 2156.470644 3245.373311 C 2101.307347 3227.530544 2053.821417 3181.466348 2018.135883 3118.056992 C 2088.653911 3076.400173 2136.779622 2999.555426 2136.779622 2913.113972 C 2136.779622 2809.682791 2067.896588 2720.042435 1974.204288 2687.911237 C 2040.670373 2594.290024 2112.254703 2498.465122 2199.549197 2430.221869 C 2209.643512 2422.40233 2219.595653 2414.58279 2229.618881 2406.834337 L 2490.649324 2406.834337 C 2490.649324 2406.834337 2541.26307 2399.441318 2541.26307 2428.160354 L 2523.349216 2665.376746 C 2523.349216 2665.661092 2523.420303 2665.874353 2523.420303 2666.087613 Z M 2615.904129 2673.907152 " stroke="#181821" stroke-width="30" stroke-opacity="1" stroke-miterlimit="10"/></g><path stroke-linecap="round" transform="matrix(-0.0549505, 0, 0, -0.0549505, 153.444425, 193.295782)" fill="none" stroke-linejoin="round" d="M 2426.884535 2882.191248 C 2426.884535 2864.206307 2419.633689 2851.268524 2394.184642 2851.268524 C 2368.735596 2851.268524 2328.855945 2852.050478 2328.855945 2869.964332 C 2328.855945 2887.878186 2368.451249 2914.606793 2393.900296 2914.606793 C 2419.349342 2914.606793 2426.884535 2900.105102 2426.884535 2882.191248 Z M 2426.884535 2882.191248 " stroke="#181821" stroke-width="30" stroke-opacity="1" stroke-miterlimit="10"/><path stroke-linecap="round" transform="matrix(-0.0549505, 0, 0, -0.0549505, 153.444425, 193.295782)" fill="none" stroke-linejoin="round" d="M 2299.710389 2928.397617 C 2299.710389 2928.397617 2349.684354 2966.215753 2419.064995 2966.215753 " stroke="#181821" stroke-width="30" stroke-opacity="1" stroke-miterlimit="10"/><g clip-path="url(#b7153704d0)"><path fill="#ffffff" d="M 55.164062 83.820312 L 53.746094 78.101562 L 23.726562 85.734375 L 22.917969 89.734375 L 55.164062 83.820312 " fill-opacity="1" fill-rule="nonzero"/></g><g clip-path="url(#c763ec396b)"><path stroke-linecap="round" transform="matrix(-0.0549505, 0, 0, -0.0549505, 153.444425, 193.295782)" fill="none" stroke-linejoin="round" d="M 1788.52577 1992.256574 L 1814.33025 2096.327535 L 2360.63171 1957.42408 L 2375.346661 1884.631277 Z M 1788.52577 1992.256574 " stroke="#181821" stroke-width="30" stroke-opacity="1" stroke-miterlimit="10"/></g><g clip-path="url(#ec353c5465)"><path fill="#ffffff" d="M 12.273438 128.65625 L 2.804688 128.65625 C 3.960938 116.90625 4.894531 102.972656 14.691406 95.765625 C 17.429688 93.75 20.175781 91.738281 22.917969 89.734375 L 54.5625 83.324219 C 72.78125 97.804688 70.324219 138.777344 70.324219 138.777344 L 24.988281 138.777344 C 23.625 133.035156 18.382812 128.65625 12.273438 128.65625 " fill-opacity="1" fill-rule="nonzero"/></g><g clip-path="url(#c6ba5dfcfc)"><path stroke-linecap="round" transform="matrix(-0.0549505, 0, 0, -0.0549505, 153.444425, 193.295782)" fill="none" stroke-linejoin="round" d="M 2569.057979 1176.323178 L 2741.372193 1176.323178 C 2720.330523 1390.152038 2703.340797 1643.718376 2525.055298 1774.873378 C 2475.223506 1811.554127 2425.24954 1848.163788 2375.346661 1884.631277 L 1799.473125 2001.284588 C 1467.924654 1737.766109 1512.638202 992.137481 1512.638202 992.137481 L 2337.670698 992.137481 C 2362.479964 1096.634963 2457.878345 1176.323178 2569.057979 1176.323178 Z M 2569.057979 1176.323178 " stroke="#181821" stroke-width="30" stroke-opacity="1" stroke-miterlimit="10"/></g><g clip-path="url(#e093211580)"><path stroke-linecap="butt" transform="matrix(0.746053, 0, 0, 0.746053, 0.536703, 9.584423)" fill="none" stroke-linejoin="miter" d="M -0.00207348 0.00202956 L 100.364722 0.00202956 L 100.364722 100.002312 L -0.00207348 100.002312 Z M -0.00207348 0.00202956 " stroke="#000000" stroke-width="4" stroke-opacity="1" stroke-miterlimit="4"/></g><g clip-path="url(#b79244e589)"><path stroke-linecap="butt" transform="matrix(0.746053, 0, 0, 0.746053, 73.925333, 9.584423)" fill-opacity="1" fill="#222b48" fill-rule="nonzero" stroke-linejoin="miter" d="M 0.000601049 0.00202956 L 200.001167 0.00202956 L 200.001167 100.002312 L 0.000601049 100.002312 Z M 0.000601049 0.00202956 " stroke="#000000" stroke-width="4" stroke-opacity="1" stroke-miterlimit="4"/></g><g fill="#ffffff" fill-opacity="1"><g transform="translate(83.25099, 74.20205)"><g><path d="M 5.9375 -9.96875 L 5.9375 0 L 2.75 0 L 2.75 -25.453125 L 10.859375 -25.453125 C 13.222656 -25.453125 15.078125 -24.742188 16.421875 -23.328125 C 17.773438 -21.910156 18.453125 -20.023438 18.453125 -17.671875 C 18.453125 -15.222656 17.804688 -13.335938 16.515625 -12.015625 C 15.234375 -10.691406 13.421875 -10.007812 11.078125 -9.96875 Z M 5.9375 -12.703125 L 10.859375 -12.703125 C 12.273438 -12.703125 13.363281 -13.128906 14.125 -13.984375 C 14.882812 -14.835938 15.265625 -16.054688 15.265625 -17.640625 C 15.265625 -19.160156 14.875 -20.378906 14.09375 -21.296875 C 13.3125 -22.222656 12.238281 -22.6875 10.875 -22.6875 L 5.9375 -22.6875 Z M 5.9375 -12.703125 "/></g></g></g><g fill="#ffffff" fill-opacity="1"><g transform="translate(102.553542, 74.20205)"><g><path d="M 9.078125 0.34375 C 6.722656 0.34375 4.914062 -0.351562 3.65625 -1.75 C 2.394531 -3.15625 1.753906 -5.21875 1.734375 -7.9375 L 1.734375 -10.21875 C 1.734375 -13.039062 2.347656 -15.253906 3.578125 -16.859375 C 4.804688 -18.460938 6.519531 -19.265625 8.71875 -19.265625 C 10.9375 -19.265625 12.59375 -18.554688 13.6875 -17.140625 C 14.78125 -15.734375 15.335938 -13.539062 15.359375 -10.5625 L 15.359375 -8.53125 L 4.8125 -8.53125 L 4.8125 -8.09375 C 4.8125 -6.0625 5.191406 -4.585938 5.953125 -3.671875 C 6.710938 -2.753906 7.8125 -2.296875 9.25 -2.296875 C 10.15625 -2.296875 10.953125 -2.46875 11.640625 -2.8125 C 12.335938 -3.15625 12.988281 -3.695312 13.59375 -4.4375 L 15.203125 -2.484375 C 13.867188 -0.597656 11.828125 0.34375 9.078125 0.34375 Z M 8.71875 -16.609375 C 7.4375 -16.609375 6.488281 -16.164062 5.875 -15.28125 C 5.257812 -14.40625 4.910156 -13.039062 4.828125 -11.1875 L 12.265625 -11.1875 L 12.265625 -11.609375 C 12.179688 -13.398438 11.859375 -14.679688 11.296875 -15.453125 C 10.734375 -16.222656 9.875 -16.609375 8.71875 -16.609375 Z M 8.71875 -16.609375 "/></g></g></g><g fill="#ffffff" fill-opacity="1"><g transform="translate(118.779629, 74.20205)"><g><path d="M 10.125 -16.015625 C 9.6875 -16.097656 9.21875 -16.140625 8.71875 -16.140625 C 7.132812 -16.140625 6.03125 -15.269531 5.40625 -13.53125 L 5.40625 0 L 2.3125 0 L 2.3125 -18.90625 L 5.3125 -18.90625 L 5.359375 -16.984375 C 6.191406 -18.503906 7.363281 -19.265625 8.875 -19.265625 C 9.363281 -19.265625 9.773438 -19.179688 10.109375 -19.015625 Z M 10.125 -16.015625 "/></g></g></g><g fill="#ffffff" fill-opacity="1"><g transform="translate(129.132466, 74.20205)"><g><path d="M 11.5 -4.84375 C 11.5 -5.507812 11.25 -6.078125 10.75 -6.546875 C 10.25 -7.023438 9.28125 -7.585938 7.84375 -8.234375 C 6.175781 -8.921875 5 -9.507812 4.3125 -10 C 3.632812 -10.488281 3.128906 -11.046875 2.796875 -11.671875 C 2.460938 -12.296875 2.296875 -13.035156 2.296875 -13.890625 C 2.296875 -15.429688 2.851562 -16.710938 3.96875 -17.734375 C 5.09375 -18.753906 6.53125 -19.265625 8.28125 -19.265625 C 10.125 -19.265625 11.601562 -18.726562 12.71875 -17.65625 C 13.84375 -16.582031 14.40625 -15.207031 14.40625 -13.53125 L 11.328125 -13.53125 C 11.328125 -14.375 11.039062 -15.097656 10.46875 -15.703125 C 9.894531 -16.304688 9.164062 -16.609375 8.28125 -16.609375 C 7.375 -16.609375 6.660156 -16.367188 6.140625 -15.890625 C 5.617188 -15.421875 5.359375 -14.789062 5.359375 -14 C 5.359375 -13.375 5.546875 -12.867188 5.921875 -12.484375 C 6.304688 -12.097656 7.222656 -11.585938 8.671875 -10.953125 C 10.960938 -10.054688 12.519531 -9.179688 13.34375 -8.328125 C 14.175781 -7.472656 14.59375 -6.382812 14.59375 -5.0625 C 14.59375 -3.425781 14.023438 -2.113281 12.890625 -1.125 C 11.765625 -0.144531 10.253906 0.34375 8.359375 0.34375 C 6.390625 0.34375 4.789062 -0.21875 3.5625 -1.34375 C 2.34375 -2.476562 1.734375 -3.910156 1.734375 -5.640625 L 4.84375 -5.640625 C 4.875 -4.597656 5.191406 -3.78125 5.796875 -3.1875 C 6.410156 -2.59375 7.265625 -2.296875 8.359375 -2.296875 C 9.378906 -2.296875 10.15625 -2.523438 10.6875 -2.984375 C 11.226562 -3.441406 11.5 -4.0625 11.5 -4.84375 Z M 11.5 -4.84375 "/></g></g></g><g fill="#ffffff" fill-opacity="1"><g transform="translate(144.904074, 74.20205)"><g><path d="M 1.65625 -10.328125 C 1.65625 -13.078125 2.320312 -15.253906 3.65625 -16.859375 C 4.988281 -18.460938 6.75 -19.265625 8.9375 -19.265625 C 11.132812 -19.265625 12.898438 -18.484375 14.234375 -16.921875 C 15.566406 -15.359375 16.253906 -13.234375 16.296875 -10.546875 L 16.296875 -8.546875 C 16.296875 -5.804688 15.628906 -3.640625 14.296875 -2.046875 C 12.972656 -0.453125 11.203125 0.34375 8.984375 0.34375 C 6.796875 0.34375 5.039062 -0.425781 3.71875 -1.96875 C 2.394531 -3.519531 1.707031 -5.617188 1.65625 -8.265625 Z M 4.75 -8.546875 C 4.75 -6.597656 5.128906 -5.066406 5.890625 -3.953125 C 6.660156 -2.847656 7.691406 -2.296875 8.984375 -2.296875 C 11.710938 -2.296875 13.117188 -4.265625 13.203125 -8.203125 L 13.203125 -10.328125 C 13.203125 -12.265625 12.816406 -13.796875 12.046875 -14.921875 C 11.273438 -16.046875 10.242188 -16.609375 8.953125 -16.609375 C 7.679688 -16.609375 6.660156 -16.046875 5.890625 -14.921875 C 5.128906 -13.796875 4.75 -12.269531 4.75 -10.34375 Z M 4.75 -8.546875 "/></g></g></g><g fill="#ffffff" fill-opacity="1"><g transform="translate(162.336269, 74.20205)"><g><path d="M 5.21875 -18.90625 L 5.3125 -16.859375 C 6.507812 -18.460938 8.039062 -19.265625 9.90625 -19.265625 C 13.25 -19.265625 14.945312 -17.03125 15 -12.5625 L 15 0 L 11.921875 0 L 11.921875 -12.421875 C 11.921875 -13.898438 11.671875 -14.953125 11.171875 -15.578125 C 10.679688 -16.203125 9.941406 -16.515625 8.953125 -16.515625 C 8.179688 -16.515625 7.488281 -16.257812 6.875 -15.75 C 6.257812 -15.238281 5.769531 -14.566406 5.40625 -13.734375 L 5.40625 0 L 2.3125 0 L 2.3125 -18.90625 Z M 5.21875 -18.90625 "/></g></g></g><g fill="#ffffff" fill-opacity="1"><g transform="translate(179.121717, 74.20205)"><g><path d="M 12.046875 0 C 11.859375 -0.40625 11.722656 -1.09375 11.640625 -2.0625 C 10.546875 -0.457031 9.148438 0.34375 7.453125 0.34375 C 5.734375 0.34375 4.394531 -0.132812 3.4375 -1.09375 C 2.476562 -2.050781 2 -3.40625 2 -5.15625 C 2 -7.082031 2.648438 -8.609375 3.953125 -9.734375 C 5.253906 -10.867188 7.039062 -11.445312 9.3125 -11.46875 L 11.59375 -11.46875 L 11.59375 -13.46875 C 11.59375 -14.601562 11.335938 -15.410156 10.828125 -15.890625 C 10.328125 -16.367188 9.566406 -16.609375 8.546875 -16.609375 C 7.617188 -16.609375 6.863281 -16.328125 6.28125 -15.765625 C 5.695312 -15.210938 5.40625 -14.515625 5.40625 -13.671875 L 2.3125 -13.671875 C 2.3125 -14.640625 2.59375 -15.5625 3.15625 -16.4375 C 3.726562 -17.320312 4.5 -18.015625 5.46875 -18.515625 C 6.4375 -19.015625 7.515625 -19.265625 8.703125 -19.265625 C 10.640625 -19.265625 12.109375 -18.78125 13.109375 -17.8125 C 14.117188 -16.851562 14.640625 -15.453125 14.671875 -13.609375 L 14.671875 -4.078125 C 14.679688 -2.617188 14.878906 -1.351562 15.265625 -0.28125 L 15.265625 0 Z M 7.921875 -2.46875 C 8.671875 -2.46875 9.390625 -2.675781 10.078125 -3.09375 C 10.765625 -3.507812 11.269531 -4.035156 11.59375 -4.671875 L 11.59375 -9.171875 L 9.84375 -9.171875 C 8.375 -9.148438 7.210938 -8.820312 6.359375 -8.1875 C 5.515625 -7.550781 5.09375 -6.660156 5.09375 -5.515625 C 5.09375 -4.453125 5.304688 -3.675781 5.734375 -3.1875 C 6.160156 -2.707031 6.890625 -2.46875 7.921875 -2.46875 Z M 7.921875 -2.46875 "/></g></g></g><g fill="#ffffff" fill-opacity="1"><g transform="translate(195.732361, 74.20205)"><g><path d="M 11.5 -4.84375 C 11.5 -5.507812 11.25 -6.078125 10.75 -6.546875 C 10.25 -7.023438 9.28125 -7.585938 7.84375 -8.234375 C 6.175781 -8.921875 5 -9.507812 4.3125 -10 C 3.632812 -10.488281 3.128906 -11.046875 2.796875 -11.671875 C 2.460938 -12.296875 2.296875 -13.035156 2.296875 -13.890625 C 2.296875 -15.429688 2.851562 -16.710938 3.96875 -17.734375 C 5.09375 -18.753906 6.53125 -19.265625 8.28125 -19.265625 C 10.125 -19.265625 11.601562 -18.726562 12.71875 -17.65625 C 13.84375 -16.582031 14.40625 -15.207031 14.40625 -13.53125 L 11.328125 -13.53125 C 11.328125 -14.375 11.039062 -15.097656 10.46875 -15.703125 C 9.894531 -16.304688 9.164062 -16.609375 8.28125 -16.609375 C 7.375 -16.609375 6.660156 -16.367188 6.140625 -15.890625 C 5.617188 -15.421875 5.359375 -14.789062 5.359375 -14 C 5.359375 -13.375 5.546875 -12.867188 5.921875 -12.484375 C 6.304688 -12.097656 7.222656 -11.585938 8.671875 -10.953125 C 10.960938 -10.054688 12.519531 -9.179688 13.34375 -8.328125 C 14.175781 -7.472656 14.59375 -6.382812 14.59375 -5.0625 C 14.59375 -3.425781 14.023438 -2.113281 12.890625 -1.125 C 11.765625 -0.144531 10.253906 0.34375 8.359375 0.34375 C 6.390625 0.34375 4.789062 -0.21875 3.5625 -1.34375 C 2.34375 -2.476562 1.734375 -3.910156 1.734375 -5.640625 L 4.84375 -5.640625 C 4.875 -4.597656 5.191406 -3.78125 5.796875 -3.1875 C 6.410156 -2.59375 7.265625 -2.296875 8.359375 -2.296875 C 9.378906 -2.296875 10.15625 -2.523438 10.6875 -2.984375 C 11.226562 -3.441406 11.5 -4.0625 11.5 -4.84375 Z M 11.5 -4.84375 "/></g></g></g><g fill="#ffffff" fill-opacity="1"><g transform="translate(83.25099, 43.455206)"><g><path d="M 14.609375 -6.640625 L 6.015625 -6.640625 L 4.03125 0 L 0.75 0 L 8.953125 -25.453125 L 11.6875 -25.453125 L 19.90625 0 L 16.625 0 Z M 6.859375 -9.40625 L 13.796875 -9.40625 L 10.3125 -20.96875 Z M 6.859375 -9.40625 "/></g></g></g><g fill="#ffffff" fill-opacity="1"><g transform="translate(103.340133, 43.455206)"><g><path d="M 8.875 -2.296875 C 9.90625 -2.296875 10.726562 -2.609375 11.34375 -3.234375 C 11.957031 -3.867188 12.296875 -4.773438 12.359375 -5.953125 L 15.28125 -5.953125 C 15.207031 -4.140625 14.5625 -2.632812 13.34375 -1.4375 C 12.125 -0.25 10.632812 0.34375 8.875 0.34375 C 6.53125 0.34375 4.742188 -0.390625 3.515625 -1.859375 C 2.285156 -3.335938 1.671875 -5.53125 1.671875 -8.4375 L 1.671875 -10.515625 C 1.671875 -13.367188 2.28125 -15.539062 3.5 -17.03125 C 4.726562 -18.519531 6.515625 -19.265625 8.859375 -19.265625 C 10.796875 -19.265625 12.332031 -18.648438 13.46875 -17.421875 C 14.601562 -16.203125 15.207031 -14.53125 15.28125 -12.40625 L 12.359375 -12.40625 C 12.285156 -13.800781 11.945312 -14.847656 11.34375 -15.546875 C 10.75 -16.253906 9.921875 -16.609375 8.859375 -16.609375 C 7.484375 -16.609375 6.460938 -16.15625 5.796875 -15.25 C 5.140625 -14.34375 4.796875 -12.859375 4.765625 -10.796875 L 4.765625 -8.390625 C 4.765625 -6.160156 5.09375 -4.585938 5.75 -3.671875 C 6.414062 -2.753906 7.457031 -2.296875 8.875 -2.296875 Z M 8.875 -2.296875 "/></g></g></g><g fill="#ffffff" fill-opacity="1"><g transform="translate(119.338975, 43.455206)"><g><path d="M 6.359375 -23.484375 L 6.359375 -18.90625 L 9.21875 -18.90625 L 9.21875 -16.40625 L 6.359375 -16.40625 L 6.359375 -4.6875 C 6.359375 -3.9375 6.476562 -3.367188 6.71875 -2.984375 C 6.96875 -2.597656 7.390625 -2.40625 7.984375 -2.40625 C 8.390625 -2.40625 8.804688 -2.476562 9.234375 -2.625 L 9.1875 0 C 8.488281 0.226562 7.773438 0.34375 7.046875 0.34375 C 5.816406 0.34375 4.878906 -0.0859375 4.234375 -0.953125 C 3.597656 -1.828125 3.28125 -3.066406 3.28125 -4.671875 L 3.28125 -16.40625 L 0.40625 -16.40625 L 0.40625 -18.90625 L 3.28125 -18.90625 L 3.28125 -23.484375 Z M 6.359375 -23.484375 "/></g></g></g><g fill="#ffffff" fill-opacity="1"><g transform="translate(129.377174, 43.455206)"><g><path d="M 5.640625 0 L 2.546875 0 L 2.546875 -18.90625 L 5.640625 -18.90625 Z M 5.890625 -23.921875 C 5.890625 -23.398438 5.742188 -22.960938 5.453125 -22.609375 C 5.160156 -22.265625 4.71875 -22.09375 4.125 -22.09375 C 3.539062 -22.09375 3.101562 -22.265625 2.8125 -22.609375 C 2.519531 -22.960938 2.375 -23.398438 2.375 -23.921875 C 2.375 -24.453125 2.519531 -24.894531 2.8125 -25.25 C 3.101562 -25.613281 3.539062 -25.796875 4.125 -25.796875 C 4.707031 -25.796875 5.144531 -25.613281 5.4375 -25.25 C 5.738281 -24.882812 5.890625 -24.441406 5.890625 -23.921875 Z M 5.890625 -23.921875 "/></g></g></g><g fill="#ffffff" fill-opacity="1"><g transform="translate(137.038101, 43.455206)"><g><path d="M 7.671875 -4.703125 L 11.25 -18.90625 L 14.40625 -18.90625 L 8.796875 0 L 6.484375 0 L 0.796875 -18.90625 L 3.953125 -18.90625 Z M 7.671875 -4.703125 "/></g></g></g><g fill="#ffffff" fill-opacity="1"><g transform="translate(151.813348, 43.455206)"><g><path d="M 9.078125 0.34375 C 6.722656 0.34375 4.914062 -0.351562 3.65625 -1.75 C 2.394531 -3.15625 1.753906 -5.21875 1.734375 -7.9375 L 1.734375 -10.21875 C 1.734375 -13.039062 2.347656 -15.253906 3.578125 -16.859375 C 4.804688 -18.460938 6.519531 -19.265625 8.71875 -19.265625 C 10.9375 -19.265625 12.59375 -18.554688 13.6875 -17.140625 C 14.78125 -15.734375 15.335938 -13.539062 15.359375 -10.5625 L 15.359375 -8.53125 L 4.8125 -8.53125 L 4.8125 -8.09375 C 4.8125 -6.0625 5.191406 -4.585938 5.953125 -3.671875 C 6.710938 -2.753906 7.8125 -2.296875 9.25 -2.296875 C 10.15625 -2.296875 10.953125 -2.46875 11.640625 -2.8125 C 12.335938 -3.15625 12.988281 -3.695312 13.59375 -4.4375 L 15.203125 -2.484375 C 13.867188 -0.597656 11.828125 0.34375 9.078125 0.34375 Z M 8.71875 -16.609375 C 7.4375 -16.609375 6.488281 -16.164062 5.875 -15.28125 C 5.257812 -14.40625 4.910156 -13.039062 4.828125 -11.1875 L 12.265625 -11.1875 L 12.265625 -11.609375 C 12.179688 -13.398438 11.859375 -14.679688 11.296875 -15.453125 C 10.734375 -16.222656 9.875 -16.609375 8.71875 -16.609375 Z M 8.71875 -16.609375 "/></g></g></g></svg>