<svg xmlns="http://www.w3.org/2000/svg" xmlns:xlink="http://www.w3.org/1999/xlink" width="539" zoomAndPan="magnify" viewBox="0 0 404.25 85.499998" height="114" preserveAspectRatio="xMidYMid meet" version="1.0"><defs><g/><clipPath id="13910a23ee"><path d="M 0.800781 0 L 402.703125 0 L 402.703125 85.003906 L 0.800781 85.003906 Z M 0.800781 0 " clip-rule="nonzero"/></clipPath><clipPath id="7b1dfd579d"><path d="M 23 49 L 53 49 L 53 79 L 23 79 Z M 23 49 " clip-rule="nonzero"/></clipPath><clipPath id="a1c769e9e2"><path d="M 22 48 L 53 48 L 53 79 L 22 79 Z M 22 48 " clip-rule="nonzero"/></clipPath><clipPath id="7d4b645ab3"><path d="M 26 51 L 38 51 L 38 79 L 26 79 Z M 26 51 " clip-rule="nonzero"/></clipPath><clipPath id="18403f56b7"><path d="M 26 50 L 39 50 L 39 79 L 26 79 Z M 26 50 " clip-rule="nonzero"/></clipPath><clipPath id="fd4ea66c4d"><path d="M 41 50 L 53 50 L 53 79 L 41 79 Z M 41 50 " clip-rule="nonzero"/></clipPath><clipPath id="dfd0f8aee2"><path d="M 40 49 L 54 49 L 54 79 L 40 79 Z M 40 49 " clip-rule="nonzero"/></clipPath><clipPath id="db61456aac"><path d="M 35 67 L 49 67 L 49 79 L 35 79 Z M 35 67 " clip-rule="nonzero"/></clipPath><clipPath id="d4d231c35b"><path d="M 37 68 L 49 68 L 49 79 L 37 79 Z M 37 68 " clip-rule="nonzero"/></clipPath><clipPath id="e156683b98"><path d="M 23 9 L 67.519531 9 L 67.519531 58 L 23 58 Z M 23 9 " clip-rule="nonzero"/></clipPath><clipPath id="2145f1b263"><path d="M 8.613281 8 L 47 8 L 47 58 L 8.613281 58 Z M 8.613281 8 " clip-rule="nonzero"/></clipPath><clipPath id="ca6d927593"><path d="M 23 73 L 56 73 L 56 79 L 23 79 Z M 23 73 " clip-rule="nonzero"/></clipPath><clipPath id="b7f4857de9"><path d="M 22 72 L 57 72 L 57 79 L 22 79 Z M 22 72 " clip-rule="nonzero"/></clipPath><clipPath id="75c778bc5d"><path d="M 8.613281 78 L 67.519531 78 L 67.519531 79 L 8.613281 79 Z M 8.613281 78 " clip-rule="nonzero"/></clipPath><clipPath id="08997ad5e0"><path d="M 8.613281 77 L 67.519531 77 L 67.519531 79 L 8.613281 79 Z M 8.613281 77 " clip-rule="nonzero"/></clipPath><clipPath id="552a60cd5a"><path d="M 0.808594 4.957031 L 75.367188 4.957031 L 75.367188 79.523438 L 0.808594 79.523438 Z M 0.808594 4.957031 " clip-rule="nonzero"/></clipPath><clipPath id="9abbe64200"><path d="M 74.15625 4.96875 L 388.703125 4.96875 L 388.703125 79.53125 L 74.15625 79.53125 Z M 74.15625 4.96875 " clip-rule="nonzero"/></clipPath><clipPath id="5f258f7896"><path d="M 74.15625 4.96875 L 388.699219 4.96875 L 388.699219 79.53125 L 74.15625 79.53125 Z M 74.15625 4.96875 " clip-rule="nonzero"/></clipPath></defs><g clip-path="url(#13910a23ee)"><path fill="#ffffff" d="M 0.800781 0 L 402.703125 0 L 402.703125 85.003906 L 0.800781 85.003906 Z M 0.800781 0 " fill-opacity="1" fill-rule="nonzero"/></g><g clip-path="url(#7b1dfd579d)"><path fill="#ffffff" d="M 31.640625 49.019531 L 23.652344 56.386719 C 32.394531 66.40625 24.710938 85.542969 24.710938 85.542969 L 51.65625 75.628906 C 48.28125 61.570312 52.140625 56.386719 52.140625 56.386719 L 31.640625 49.019531 " fill-opacity="1" fill-rule="nonzero"/></g><g clip-path="url(#a1c769e9e2)"><path stroke-linecap="round" transform="matrix(-0.0549201, 0, 0, -0.0549201, 153.629984, 188.567987)" fill="none" stroke-linejoin="round" d="M 2221.216754 2540.93777 L 2366.669639 2406.793935 C 2207.489416 2224.355476 2347.394465 1875.908687 2347.394465 1875.908687 L 1856.766591 2056.426741 C 1918.219546 2312.409594 1847.946954 2406.793935 1847.946954 2406.793935 Z M 2221.216754 2540.93777 " stroke="#181821" stroke-width="30" stroke-opacity="1" stroke-miterlimit="10"/></g><g clip-path="url(#7d4b645ab3)"><path fill="#ffffff" d="M 37.777344 84.230469 L 35.050781 84.902344 L 26.90625 51.984375 L 29.636719 51.308594 L 37.777344 84.230469 " fill-opacity="1" fill-rule="nonzero"/></g><g clip-path="url(#18403f56b7)"><path stroke-linecap="round" transform="matrix(-0.0549201, 0, 0, -0.0549201, 153.629984, 188.567987)" fill="none" stroke-linejoin="round" d="M 2109.477643 1899.807058 L 2159.123664 1887.573368 L 2307.421594 2486.953056 L 2257.704446 2499.257872 Z M 2109.477643 1899.807058 " stroke="#181821" stroke-width="30" stroke-opacity="1" stroke-miterlimit="10"/></g><g clip-path="url(#fd4ea66c4d)"><path fill="#ffffff" d="M 52.25 83.402344 L 49.519531 84.078125 L 41.375 51.15625 L 44.105469 50.480469 L 52.25 83.402344 " fill-opacity="1" fill-rule="nonzero"/></g><g clip-path="url(#dfd0f8aee2)"><path stroke-linecap="round" transform="matrix(-0.0549201, 0, 0, -0.0549201, 153.629984, 188.567987)" fill="none" stroke-linejoin="round" d="M 1845.955423 1914.885792 L 1895.672571 1902.580976 L 2043.9705 2502.03179 L 1994.253353 2514.336606 Z M 1845.955423 1914.885792 " stroke="#181821" stroke-width="30" stroke-opacity="1" stroke-miterlimit="10"/></g><path fill="#ffffff" d="M 36.308594 73.4375 C 36.308594 76.480469 38.773438 78.945312 41.8125 78.945312 C 44.855469 78.945312 47.320312 76.480469 47.320312 73.4375 C 47.320312 70.398438 44.855469 67.933594 41.8125 67.933594 C 38.773438 67.933594 36.308594 70.398438 36.308594 73.4375 " fill-opacity="1" fill-rule="nonzero"/><g clip-path="url(#db61456aac)"><path stroke-linecap="round" transform="matrix(-0.0549201, 0, 0, -0.0549201, 153.629984, 188.567987)" fill="none" stroke-linejoin="round" d="M 2136.221059 2096.328486 C 2136.221059 2040.921251 2091.340486 1996.040678 2036.004376 1996.040678 C 1980.59714 1996.040678 1935.716568 2040.921251 1935.716568 2096.328486 C 1935.716568 2151.664596 1980.59714 2196.545169 2036.004376 2196.545169 C 2091.340486 2196.545169 2136.221059 2151.664596 2136.221059 2096.328486 Z M 2136.221059 2096.328486 " stroke="#181821" stroke-width="30" stroke-opacity="1" stroke-miterlimit="10"/></g><path fill="#ffffff" d="M 44.792969 70.398438 C 45.09375 70.097656 45.355469 69.78125 45.601562 69.449219 C 46.65625 70.453125 47.320312 71.867188 47.320312 73.4375 C 47.320312 76.480469 44.855469 78.945312 41.8125 78.945312 C 40.277344 78.945312 38.886719 78.316406 37.890625 77.300781 C 40.191406 75 42.492188 72.699219 44.792969 70.398438 " fill-opacity="1" fill-rule="nonzero"/><g clip-path="url(#d4d231c35b)"><path stroke-linecap="round" transform="matrix(-0.0549201, 0, 0, -0.0549201, 153.629984, 188.567987)" fill="none" stroke-linejoin="round" d="M 1981.735158 2151.664596 C 1976.258448 2157.141306 1971.492999 2162.902521 1967.012054 2168.94824 C 1947.808006 2150.668831 1935.716568 2124.921181 1935.716568 2096.328486 C 1935.716568 2040.921251 1980.59714 1996.040678 2036.004376 1996.040678 C 2063.956936 1996.040678 2089.277829 2007.491981 2107.414986 2025.984768 C 2065.52171 2067.878044 2023.628434 2109.77132 1981.735158 2151.664596 Z M 1981.735158 2151.664596 " stroke="#181821" stroke-width="30" stroke-opacity="1" stroke-miterlimit="10"/></g><path fill="#ffffff" d="M 39.8125 73.4375 C 39.8125 74.546875 40.707031 75.441406 41.8125 75.441406 C 42.917969 75.441406 43.8125 74.546875 43.8125 73.4375 C 43.8125 72.335938 42.917969 71.441406 41.8125 71.441406 C 40.707031 71.441406 39.8125 72.335938 39.8125 73.4375 " fill-opacity="1" fill-rule="nonzero"/><path stroke-linecap="round" transform="matrix(-0.0549201, 0, 0, -0.0549201, 153.629984, 188.567987)" fill="none" stroke-linejoin="round" d="M 2072.420942 2096.328486 C 2072.420942 2076.128673 2056.133064 2059.840794 2036.004376 2059.840794 C 2015.875689 2059.840794 1999.587811 2076.128673 1999.587811 2096.328486 C 1999.587811 2116.386048 2015.875689 2132.673926 2036.004376 2132.673926 C 2056.133064 2132.673926 2072.420942 2116.386048 2072.420942 2096.328486 Z M 2072.420942 2096.328486 " stroke="#181821" stroke-width="30" stroke-opacity="1" stroke-miterlimit="10"/><path fill="#ffffff" d="M 35.726562 10.273438 C 41.101562 9.117188 52.957031 12.3125 57.1875 15.738281 C 66.769531 23.5 69.402344 39.769531 62.445312 51.171875 C 60.917969 53.671875 57.519531 56.171875 54.484375 56.386719 C 54.46875 56.386719 27.621094 58.300781 24.640625 34.429688 C 24.640625 34.429688 23.148438 12.972656 35.726562 10.273438 " fill-opacity="1" fill-rule="nonzero"/><g clip-path="url(#e156683b98)"><path stroke-linecap="round" transform="matrix(-0.0549201, 0, 0, -0.0549201, 153.629984, 188.567987)" fill="none" stroke-linejoin="round" d="M 2146.818848 3246.437606 C 2048.949328 3267.490934 1833.081598 3209.30978 1756.052027 3146.932185 C 1581.579691 3005.604615 1533.640696 2709.364387 1660.316289 2501.747286 C 1688.126596 2456.226578 1750.006308 2410.705871 1805.271291 2406.793935 C 1805.555796 2406.793935 2294.405516 2371.942144 2348.674735 2806.593772 C 2348.674735 2806.593772 2375.844907 3197.289468 2146.818848 3246.437606 Z M 2146.818848 3246.437606 " stroke="#181821" stroke-width="30" stroke-opacity="1" stroke-miterlimit="10"/></g><path fill="#ffffff" d="M 40.785156 37.558594 L 49.191406 37.558594 C 50.011719 39.976562 50.929688 42.378906 51.992188 44.703125 C 50.253906 45.625 48.277344 46.148438 46.175781 46.148438 C 42.347656 46.148438 38.925781 44.417969 36.644531 41.695312 C 38.027344 40.316406 39.40625 38.933594 40.785156 37.558594 " fill-opacity="1" fill-rule="nonzero"/><path stroke-linecap="round" transform="matrix(-0.0549201, 0, 0, -0.0549201, 153.629984, 188.567987)" fill="none" stroke-linejoin="round" d="M 2054.710542 2749.621762 L 1901.647164 2749.621762 C 1886.710682 2705.594703 1869.996047 2661.852148 1850.649746 2619.532116 C 1882.300863 2602.746355 1918.290672 2593.215457 1956.556517 2593.215457 C 2026.2601 2593.215457 2088.566568 2624.724321 2130.104213 2674.299217 C 2104.925572 2699.406732 2079.818057 2724.585373 2054.710542 2749.621762 Z M 2054.710542 2749.621762 " stroke="#181821" stroke-width="30" stroke-opacity="1" stroke-miterlimit="10"/><path fill="#ffffff" d="M 40.785156 24.332031 L 49.191406 24.332031 C 50.011719 21.914062 50.929688 19.511719 51.992188 17.183594 C 50.253906 16.261719 48.277344 15.738281 46.175781 15.738281 C 42.347656 15.738281 38.925781 17.46875 36.644531 20.195312 C 38.027344 21.574219 39.40625 22.953125 40.785156 24.332031 " fill-opacity="1" fill-rule="nonzero"/><path stroke-linecap="round" transform="matrix(-0.0549201, 0, 0, -0.0549201, 153.629984, 188.567987)" fill="none" stroke-linejoin="round" d="M 2054.710542 2990.454754 L 1901.647164 2990.454754 C 1886.710682 3034.481813 1869.996047 3078.224368 1850.649746 3120.615527 C 1882.300863 3137.401287 1918.290672 3146.932185 1956.556517 3146.932185 C 2026.2601 3146.932185 2088.566568 3115.423321 2130.104213 3065.777299 C 2104.925572 3040.669784 2079.818057 3015.562269 2054.710542 2990.454754 Z M 2054.710542 2990.454754 " stroke="#181821" stroke-width="30" stroke-opacity="1" stroke-miterlimit="10"/><path fill="#ffffff" d="M 55.824219 28.316406 L 51.992188 35.800781 C 53.773438 37.632812 55.488281 39.546875 57.078125 41.550781 C 58.6875 40.425781 60.058594 38.902344 61.015625 37.03125 C 62.761719 33.625 62.78125 29.789062 61.394531 26.519531 C 59.539062 27.121094 57.679688 27.71875 55.824219 28.316406 " fill-opacity="1" fill-rule="nonzero"/><path stroke-linecap="round" transform="matrix(-0.0549201, 0, 0, -0.0549201, 153.629984, 188.567987)" fill="none" stroke-linejoin="round" d="M 1780.875037 2917.906127 L 1850.649746 2781.628509 C 1818.216242 2748.270366 1786.991882 2713.418575 1758.043558 2676.930883 C 1728.739602 2697.415201 1703.774339 2725.154382 1686.348444 2759.223786 C 1654.555075 2821.24575 1654.199444 2891.091585 1679.449211 2950.624135 C 1713.234111 2939.670715 1747.090137 2928.788421 1780.875037 2917.906127 Z M 1780.875037 2917.906127 " stroke="#181821" stroke-width="30" stroke-opacity="1" stroke-miterlimit="10"/><path fill="#ffffff" d="M 33.746094 30.75 C 33.746094 37.613281 39.3125 43.175781 46.175781 43.175781 C 53.039062 43.175781 58.601562 37.613281 58.601562 30.75 C 58.601562 23.886719 53.039062 18.324219 46.175781 18.324219 C 39.3125 18.324219 33.746094 23.886719 33.746094 30.75 " fill-opacity="1" fill-rule="nonzero"/><path stroke-linecap="round" transform="matrix(-0.0549201, 0, 0, -0.0549201, 153.629984, 188.567987)" fill="none" stroke-linejoin="round" d="M 2182.879784 2873.594563 C 2182.879784 2748.625997 2081.525084 2647.342423 1956.556517 2647.342423 C 1831.58795 2647.342423 1730.304377 2748.625997 1730.304377 2873.594563 C 1730.304377 2998.56313 1831.58795 3099.846704 1956.556517 3099.846704 C 2081.525084 3099.846704 2182.879784 2998.56313 2182.879784 2873.594563 Z M 2182.879784 2873.594563 " stroke="#181821" stroke-width="30" stroke-opacity="1" stroke-miterlimit="10"/><path fill="#ffffff" d="M 38.933594 30.75 C 38.933594 34.75 42.175781 37.992188 46.175781 37.992188 C 50.175781 37.992188 53.417969 34.75 53.417969 30.75 C 53.417969 26.75 50.175781 23.507812 46.175781 23.507812 C 42.175781 23.507812 38.933594 26.75 38.933594 30.75 " fill-opacity="1" fill-rule="nonzero"/><path stroke-linecap="round" transform="matrix(-0.0549201, 0, 0, -0.0549201, 153.629984, 188.567987)" fill="none" stroke-linejoin="round" d="M 2088.424316 2873.594563 C 2088.424316 2800.761432 2029.389649 2741.726764 1956.556517 2741.726764 C 1883.723385 2741.726764 1824.688718 2800.761432 1824.688718 2873.594563 C 1824.688718 2946.427695 1883.723385 3005.462362 1956.556517 3005.462362 C 2029.389649 3005.462362 2088.424316 2946.427695 2088.424316 2873.594563 Z M 2088.424316 2873.594563 " stroke="#181821" stroke-width="30" stroke-opacity="1" stroke-miterlimit="10"/><path fill="#ffffff" d="M 42.796875 30.75 C 42.796875 32.613281 44.308594 34.125 46.175781 34.125 C 48.039062 34.125 49.550781 32.613281 49.550781 30.75 C 49.550781 28.886719 48.039062 27.371094 46.175781 27.371094 C 44.308594 27.371094 42.796875 28.886719 42.796875 30.75 " fill-opacity="1" fill-rule="nonzero"/><path stroke-linecap="round" transform="matrix(-0.0549201, 0, 0, -0.0549201, 153.629984, 188.567987)" fill="none" stroke-linejoin="round" d="M 2018.080598 2873.594563 C 2018.080598 2839.667411 1990.554795 2812.141609 1956.556517 2812.141609 C 1922.629365 2812.141609 1895.103562 2839.667411 1895.103562 2873.594563 C 1895.103562 2907.521716 1922.629365 2935.118644 1956.556517 2935.118644 C 1990.554795 2935.118644 2018.080598 2907.521716 2018.080598 2873.594563 Z M 2018.080598 2873.594563 " stroke="#181821" stroke-width="30" stroke-opacity="1" stroke-miterlimit="10"/><path fill="#ffffff" d="M 9.964844 41.71875 L 9.789062 40.484375 C 9.789062 40.484375 12.21875 38.527344 13.304688 36.503906 C 13.304688 36.503906 14.972656 32.613281 15.847656 29.738281 C 16.601562 26.800781 17.761719 23.835938 19.335938 20.546875 C 23.511719 11.828125 27.003906 7.675781 35.199219 10.332031 C 38.226562 11.3125 40.832031 13.84375 42.792969 17.324219 C 38.921875 19.609375 36.277344 23.832031 36.277344 28.582031 C 36.277344 34.261719 40.0625 39.183594 45.207031 40.945312 C 41.554688 46.089844 37.625 51.351562 32.828125 55.101562 C 32.277344 55.53125 31.730469 55.957031 31.179688 56.386719 L 16.84375 56.386719 C 16.84375 56.386719 14.0625 56.792969 14.0625 55.214844 L 15.050781 42.183594 C 15.046875 42.171875 15.042969 42.160156 15.042969 42.144531 L 9.964844 41.71875 " fill-opacity="1" fill-rule="nonzero"/><g clip-path="url(#2145f1b263)"><path stroke-linecap="round" transform="matrix(-0.0549201, 0, 0, -0.0549201, 153.629984, 188.567987)" fill="none" stroke-linejoin="round" d="M 2615.895512 2673.87246 L 2619.096186 2696.348309 C 2619.096186 2696.348309 2574.855749 2731.982488 2555.082692 2768.82581 C 2555.082692 2768.82581 2524.711845 2839.667411 2508.779597 2892.016225 C 2495.052259 2945.503056 2473.927806 2999.487769 2445.263985 3059.37595 C 2369.230179 3218.129417 2305.643441 3293.736466 2156.420872 3245.370715 C 2101.298141 3227.518063 2053.857029 3181.428346 2018.151724 3118.054987 C 2088.637694 3076.446215 2136.790067 2999.558896 2136.790067 2913.069552 C 2136.790067 2809.652195 2067.868872 2720.033302 1974.195791 2687.955429 C 2040.698699 2594.282348 2112.251561 2498.475485 2199.594418 2430.194424 C 2209.623199 2422.370552 2219.580854 2414.617807 2229.609635 2406.793935 L 2490.64244 2406.793935 C 2490.64244 2406.793935 2541.284227 2399.39682 2541.284227 2428.131767 L 2523.289323 2665.408454 C 2523.360449 2665.621832 2523.431575 2665.83521 2523.431575 2666.119715 Z M 2615.895512 2673.87246 " stroke="#181821" stroke-width="30" stroke-opacity="1" stroke-miterlimit="10"/></g><path stroke-linecap="round" transform="matrix(-0.0549201, 0, 0, -0.0549201, 153.629984, 188.567987)" fill="none" stroke-linejoin="round" d="M 2426.91345 2882.129696 C 2426.91345 2864.205917 2419.658588 2851.260966 2394.195442 2851.260966 C 2368.732296 2851.260966 2328.830551 2852.043354 2328.830551 2869.967132 C 2328.830551 2887.89091 2368.447792 2914.634326 2393.910937 2914.634326 C 2419.302957 2914.634326 2426.91345 2900.053474 2426.91345 2882.129696 Z M 2426.91345 2882.129696 " stroke="#181821" stroke-width="30" stroke-opacity="1" stroke-miterlimit="10"/><path stroke-linecap="round" transform="matrix(-0.0549201, 0, 0, -0.0549201, 153.629984, 188.567987)" fill="none" stroke-linejoin="round" d="M 2299.668848 2928.361664 C 2299.668848 2928.361664 2349.6705 2966.200752 2419.089579 2966.200752 " stroke="#181821" stroke-width="30" stroke-opacity="1" stroke-miterlimit="10"/><g clip-path="url(#ca6d927593)"><path fill="#ffffff" d="M 55.402344 79.152344 L 53.988281 73.4375 L 23.980469 81.066406 L 23.175781 85.066406 L 55.402344 79.152344 " fill-opacity="1" fill-rule="nonzero"/></g><g clip-path="url(#b7f4857de9)"><path stroke-linecap="round" transform="matrix(-0.0549201, 0, 0, -0.0549201, 153.629984, 188.567987)" fill="none" stroke-linejoin="round" d="M 1788.556657 1992.270995 L 1814.304307 2096.328486 L 2360.695046 1957.419203 L 2375.347024 1884.586071 Z M 1788.556657 1992.270995 " stroke="#181821" stroke-width="30" stroke-opacity="1" stroke-miterlimit="10"/></g><g clip-path="url(#75c778bc5d)"><path fill="#ffffff" d="M 12.535156 123.964844 L 3.070312 123.964844 C 4.226562 112.21875 5.160156 98.292969 14.953125 91.089844 C 17.691406 89.078125 20.433594 87.066406 23.175781 85.066406 L 54.804688 78.660156 C 73.011719 93.128906 70.558594 134.078125 70.558594 134.078125 L 25.246094 134.078125 C 23.882812 128.339844 18.644531 123.964844 12.535156 123.964844 " fill-opacity="1" fill-rule="nonzero"/></g><g clip-path="url(#08997ad5e0)"><path stroke-linecap="round" transform="matrix(-0.0549201, 0, 0, -0.0549201, 153.629984, 188.567987)" fill="none" stroke-linejoin="round" d="M 2569.094534 1176.312316 L 2741.433087 1176.312316 C 2720.37976 1390.188515 2703.380621 1643.753079 2525.067475 1774.909617 C 2475.208076 1811.539561 2425.27755 1848.169506 2375.347024 1884.586071 L 1799.438951 2001.232884 C 1467.920175 1737.78179 1512.587369 992.16683 1512.587369 992.16683 L 2337.650188 992.16683 C 2362.473199 1096.651079 2457.853306 1176.312316 2569.094534 1176.312316 Z M 2569.094534 1176.312316 " stroke="#181821" stroke-width="30" stroke-opacity="1" stroke-miterlimit="10"/></g><g clip-path="url(#552a60cd5a)"><path stroke-linecap="butt" transform="matrix(0.745639, 0, 0, 0.745639, 0.806928, 4.958358)" fill="none" stroke-linejoin="miter" d="M 0.00223362 -0.00177961 L 100.361768 -0.00177961 L 100.361768 100.001517 L 0.00223362 100.001517 Z M 0.00223362 -0.00177961 " stroke="#000000" stroke-width="4" stroke-opacity="1" stroke-miterlimit="4"/></g><g clip-path="url(#9abbe64200)"><path fill="#222b48" d="M 74.15625 4.96875 L 388.722656 4.96875 L 388.722656 79.53125 L 74.15625 79.53125 Z M 74.15625 4.96875 " fill-opacity="1" fill-rule="nonzero"/></g><g clip-path="url(#5f258f7896)"><path stroke-linecap="butt" transform="matrix(0.745639, 0, 0, 0.745639, 74.154922, 4.968283)" fill="none" stroke-linejoin="miter" d="M 0.00178086 0.000626683 L 421.84504 0.000626683 L 421.84504 99.998691 L 0.00178086 99.998691 Z M 0.00178086 0.000626683 " stroke="#000000" stroke-width="4" stroke-opacity="1" stroke-miterlimit="4"/></g><g fill="#ffffff" fill-opacity="1"><g transform="translate(83.475416, 57.908226)"><g><path d="M 19.484375 -8.859375 L 8.015625 -8.859375 L 5.375 0 L 1 0 L 11.9375 -33.921875 L 15.59375 -33.921875 L 26.53125 0 L 22.15625 0 Z M 9.140625 -12.53125 L 18.390625 -12.53125 L 13.75 -27.953125 Z M 9.140625 -12.53125 "/></g></g></g><g fill="#ffffff" fill-opacity="1"><g transform="translate(110.255058, 57.908226)"><g><path d="M 11.84375 -3.046875 C 13.207031 -3.046875 14.300781 -3.46875 15.125 -4.3125 C 15.945312 -5.164062 16.394531 -6.378906 16.46875 -7.953125 L 20.359375 -7.953125 C 20.265625 -5.523438 19.40625 -3.515625 17.78125 -1.921875 C 16.164062 -0.328125 14.1875 0.46875 11.84375 0.46875 C 8.71875 0.46875 6.332031 -0.507812 4.6875 -2.46875 C 3.050781 -4.4375 2.234375 -7.363281 2.234375 -11.25 L 2.234375 -14.03125 C 2.234375 -17.832031 3.046875 -20.722656 4.671875 -22.703125 C 6.304688 -24.679688 8.6875 -25.671875 11.8125 -25.671875 C 14.394531 -25.671875 16.441406 -24.851562 17.953125 -23.21875 C 19.460938 -21.59375 20.265625 -19.367188 20.359375 -16.546875 L 16.46875 -16.546875 C 16.375 -18.410156 15.925781 -19.804688 15.125 -20.734375 C 14.332031 -21.671875 13.226562 -22.140625 11.8125 -22.140625 C 9.976562 -22.140625 8.617188 -21.535156 7.734375 -20.328125 C 6.847656 -19.128906 6.390625 -17.15625 6.359375 -14.40625 L 6.359375 -11.1875 C 6.359375 -8.21875 6.796875 -6.117188 7.671875 -4.890625 C 8.554688 -3.660156 9.945312 -3.046875 11.84375 -3.046875 Z M 11.84375 -3.046875 "/></g></g></g><g fill="#ffffff" fill-opacity="1"><g transform="translate(131.582212, 57.908226)"><g><path d="M 8.484375 -31.3125 L 8.484375 -25.203125 L 12.28125 -25.203125 L 12.28125 -21.875 L 8.484375 -21.875 L 8.484375 -6.25 C 8.484375 -5.25 8.644531 -4.492188 8.96875 -3.984375 C 9.289062 -3.472656 9.847656 -3.21875 10.640625 -3.21875 C 11.191406 -3.21875 11.742188 -3.3125 12.296875 -3.5 L 12.25 0 C 11.320312 0.3125 10.367188 0.46875 9.390625 0.46875 C 7.753906 0.46875 6.507812 -0.113281 5.65625 -1.28125 C 4.800781 -2.445312 4.375 -4.09375 4.375 -6.21875 L 4.375 -21.875 L 0.53125 -21.875 L 0.53125 -25.203125 L 4.375 -25.203125 L 4.375 -31.3125 Z M 8.484375 -31.3125 "/></g></g></g><g fill="#ffffff" fill-opacity="1"><g transform="translate(144.963646, 57.908226)"><g><path d="M 7.53125 0 L 3.40625 0 L 3.40625 -25.203125 L 7.53125 -25.203125 Z M 7.859375 -31.890625 C 7.859375 -31.191406 7.660156 -30.609375 7.265625 -30.140625 C 6.878906 -29.679688 6.289062 -29.453125 5.5 -29.453125 C 4.71875 -29.453125 4.132812 -29.679688 3.75 -30.140625 C 3.363281 -30.609375 3.171875 -31.191406 3.171875 -31.890625 C 3.171875 -32.597656 3.363281 -33.191406 3.75 -33.671875 C 4.132812 -34.148438 4.710938 -34.390625 5.484375 -34.390625 C 6.265625 -34.390625 6.851562 -34.144531 7.25 -33.65625 C 7.65625 -33.164062 7.859375 -32.578125 7.859375 -31.890625 Z M 7.859375 -31.890625 "/></g></g></g><g fill="#ffffff" fill-opacity="1"><g transform="translate(155.176111, 57.908226)"><g><path d="M 10.234375 -6.265625 L 15 -25.203125 L 19.203125 -25.203125 L 11.71875 0 L 8.640625 0 L 1.078125 -25.203125 L 5.265625 -25.203125 Z M 10.234375 -6.265625 "/></g></g></g><g fill="#ffffff" fill-opacity="1"><g transform="translate(174.872179, 57.908226)"><g><path d="M 12.09375 0.46875 C 8.957031 0.46875 6.550781 -0.46875 4.875 -2.34375 C 3.195312 -4.21875 2.34375 -6.960938 2.3125 -10.578125 L 2.3125 -13.625 C 2.3125 -17.382812 3.128906 -20.332031 4.765625 -22.46875 C 6.398438 -24.601562 8.6875 -25.671875 11.625 -25.671875 C 14.570312 -25.671875 16.773438 -24.726562 18.234375 -22.84375 C 19.703125 -20.96875 20.453125 -18.046875 20.484375 -14.078125 L 20.484375 -11.375 L 6.40625 -11.375 L 6.40625 -10.78125 C 6.40625 -8.082031 6.910156 -6.117188 7.921875 -4.890625 C 8.941406 -3.660156 10.410156 -3.046875 12.328125 -3.046875 C 13.535156 -3.046875 14.601562 -3.273438 15.53125 -3.734375 C 16.457031 -4.191406 17.320312 -4.921875 18.125 -5.921875 L 20.265625 -3.3125 C 18.484375 -0.789062 15.757812 0.46875 12.09375 0.46875 Z M 11.625 -22.140625 C 9.914062 -22.140625 8.648438 -21.550781 7.828125 -20.375 C 7.003906 -19.195312 6.539062 -17.375 6.4375 -14.90625 L 16.359375 -14.90625 L 16.359375 -15.46875 C 16.242188 -17.863281 15.8125 -19.570312 15.0625 -20.59375 C 14.3125 -21.625 13.164062 -22.140625 11.625 -22.140625 Z M 11.625 -22.140625 "/></g></g></g><g fill="#ffffff" fill-opacity="1"><g transform="translate(196.502249, 57.908226)"><g/></g></g><g fill="#ffffff" fill-opacity="1"><g transform="translate(206.714709, 57.908226)"><g><path d="M 7.921875 -13.28125 L 7.921875 0 L 3.65625 0 L 3.65625 -33.921875 L 14.46875 -33.921875 C 17.625 -33.921875 20.101562 -32.976562 21.90625 -31.09375 C 23.707031 -29.207031 24.609375 -26.695312 24.609375 -23.5625 C 24.609375 -20.289062 23.75 -17.773438 22.03125 -16.015625 C 20.3125 -14.253906 17.890625 -13.34375 14.765625 -13.28125 Z M 7.921875 -16.9375 L 14.46875 -16.9375 C 16.363281 -16.9375 17.816406 -17.503906 18.828125 -18.640625 C 19.835938 -19.773438 20.34375 -21.398438 20.34375 -23.515625 C 20.34375 -25.546875 19.820312 -27.175781 18.78125 -28.40625 C 17.738281 -29.632812 16.3125 -30.25 14.5 -30.25 L 7.921875 -30.25 Z M 7.921875 -16.9375 "/></g></g></g><g fill="#ffffff" fill-opacity="1"><g transform="translate(232.445802, 57.908226)"><g><path d="M 12.09375 0.46875 C 8.957031 0.46875 6.550781 -0.46875 4.875 -2.34375 C 3.195312 -4.21875 2.34375 -6.960938 2.3125 -10.578125 L 2.3125 -13.625 C 2.3125 -17.382812 3.128906 -20.332031 4.765625 -22.46875 C 6.398438 -24.601562 8.6875 -25.671875 11.625 -25.671875 C 14.570312 -25.671875 16.773438 -24.726562 18.234375 -22.84375 C 19.703125 -20.96875 20.453125 -18.046875 20.484375 -14.078125 L 20.484375 -11.375 L 6.40625 -11.375 L 6.40625 -10.78125 C 6.40625 -8.082031 6.910156 -6.117188 7.921875 -4.890625 C 8.941406 -3.660156 10.410156 -3.046875 12.328125 -3.046875 C 13.535156 -3.046875 14.601562 -3.273438 15.53125 -3.734375 C 16.457031 -4.191406 17.320312 -4.921875 18.125 -5.921875 L 20.265625 -3.3125 C 18.484375 -0.789062 15.757812 0.46875 12.09375 0.46875 Z M 11.625 -22.140625 C 9.914062 -22.140625 8.648438 -21.550781 7.828125 -20.375 C 7.003906 -19.195312 6.539062 -17.375 6.4375 -14.90625 L 16.359375 -14.90625 L 16.359375 -15.46875 C 16.242188 -17.863281 15.8125 -19.570312 15.0625 -20.59375 C 14.3125 -21.625 13.164062 -22.140625 11.625 -22.140625 Z M 11.625 -22.140625 "/></g></g></g><g fill="#ffffff" fill-opacity="1"><g transform="translate(254.075878, 57.908226)"><g><path d="M 13.484375 -21.34375 C 12.910156 -21.445312 12.289062 -21.5 11.625 -21.5 C 9.507812 -21.5 8.035156 -20.34375 7.203125 -18.03125 L 7.203125 0 L 3.078125 0 L 3.078125 -25.203125 L 7.078125 -25.203125 L 7.15625 -22.640625 C 8.257812 -24.660156 9.820312 -25.671875 11.84375 -25.671875 C 12.488281 -25.671875 13.03125 -25.5625 13.46875 -25.34375 Z M 13.484375 -21.34375 "/></g></g></g><g fill="#ffffff" fill-opacity="1"><g transform="translate(267.876739, 57.908226)"><g><path d="M 15.328125 -6.453125 C 15.328125 -7.335938 14.992188 -8.097656 14.328125 -8.734375 C 13.660156 -9.367188 12.375 -10.113281 10.46875 -10.96875 C 8.238281 -11.882812 6.671875 -12.671875 5.765625 -13.328125 C 4.859375 -13.984375 4.175781 -14.722656 3.71875 -15.546875 C 3.269531 -16.378906 3.046875 -17.375 3.046875 -18.53125 C 3.046875 -20.570312 3.796875 -22.269531 5.296875 -23.625 C 6.796875 -24.988281 8.710938 -25.671875 11.046875 -25.671875 C 13.492188 -25.671875 15.460938 -24.957031 16.953125 -23.53125 C 18.453125 -22.101562 19.203125 -20.269531 19.203125 -18.03125 L 15.09375 -18.03125 C 15.09375 -19.164062 14.710938 -20.132812 13.953125 -20.9375 C 13.191406 -21.738281 12.222656 -22.140625 11.046875 -22.140625 C 9.835938 -22.140625 8.882812 -21.820312 8.1875 -21.1875 C 7.5 -20.5625 7.15625 -19.71875 7.15625 -18.65625 C 7.15625 -17.820312 7.40625 -17.148438 7.90625 -16.640625 C 8.414062 -16.128906 9.632812 -15.453125 11.5625 -14.609375 C 14.613281 -13.410156 16.691406 -12.238281 17.796875 -11.09375 C 18.898438 -9.957031 19.453125 -8.507812 19.453125 -6.75 C 19.453125 -4.5625 18.695312 -2.8125 17.1875 -1.5 C 15.6875 -0.1875 13.671875 0.46875 11.140625 0.46875 C 8.515625 0.46875 6.382812 -0.28125 4.75 -1.78125 C 3.125 -3.289062 2.3125 -5.207031 2.3125 -7.53125 L 6.453125 -7.53125 C 6.503906 -6.125 6.929688 -5.023438 7.734375 -4.234375 C 8.546875 -3.441406 9.679688 -3.046875 11.140625 -3.046875 C 12.503906 -3.046875 13.539062 -3.351562 14.25 -3.96875 C 14.96875 -4.582031 15.328125 -5.410156 15.328125 -6.453125 Z M 15.328125 -6.453125 "/></g></g></g><g fill="#ffffff" fill-opacity="1"><g transform="translate(288.900983, 57.908226)"><g><path d="M 2.21875 -13.765625 C 2.21875 -17.429688 3.101562 -20.332031 4.875 -22.46875 C 6.65625 -24.601562 9.003906 -25.671875 11.921875 -25.671875 C 14.847656 -25.671875 17.195312 -24.628906 18.96875 -22.546875 C 20.75 -20.472656 21.664062 -17.640625 21.71875 -14.046875 L 21.71875 -11.390625 C 21.71875 -7.742188 20.832031 -4.851562 19.0625 -2.71875 C 17.289062 -0.59375 14.925781 0.46875 11.96875 0.46875 C 9.050781 0.46875 6.710938 -0.5625 4.953125 -2.625 C 3.191406 -4.695312 2.28125 -7.492188 2.21875 -11.015625 Z M 6.34375 -11.390625 C 6.34375 -8.796875 6.847656 -6.753906 7.859375 -5.265625 C 8.878906 -3.785156 10.25 -3.046875 11.96875 -3.046875 C 15.601562 -3.046875 17.476562 -5.671875 17.59375 -10.921875 L 17.59375 -13.765625 C 17.59375 -16.347656 17.078125 -18.390625 16.046875 -19.890625 C 15.023438 -21.390625 13.65625 -22.140625 11.9375 -22.140625 C 10.238281 -22.140625 8.878906 -21.390625 7.859375 -19.890625 C 6.847656 -18.390625 6.34375 -16.359375 6.34375 -13.796875 Z M 6.34375 -11.390625 "/></g></g></g><g fill="#ffffff" fill-opacity="1"><g transform="translate(312.138844, 57.908226)"><g><path d="M 6.96875 -25.203125 L 7.078125 -22.484375 C 8.679688 -24.609375 10.726562 -25.671875 13.21875 -25.671875 C 17.664062 -25.671875 19.921875 -22.695312 19.984375 -16.75 L 19.984375 0 L 15.890625 0 L 15.890625 -16.5625 C 15.890625 -18.539062 15.554688 -19.941406 14.890625 -20.765625 C 14.234375 -21.597656 13.25 -22.015625 11.9375 -22.015625 C 10.90625 -22.015625 9.984375 -21.671875 9.171875 -20.984375 C 8.359375 -20.304688 7.703125 -19.414062 7.203125 -18.3125 L 7.203125 0 L 3.078125 0 L 3.078125 -25.203125 Z M 6.96875 -25.203125 "/></g></g></g><g fill="#ffffff" fill-opacity="1"><g transform="translate(334.51456, 57.908226)"><g><path d="M 16.046875 0 C 15.804688 -0.539062 15.628906 -1.457031 15.515625 -2.75 C 14.054688 -0.601562 12.191406 0.46875 9.921875 0.46875 C 7.640625 0.46875 5.859375 -0.171875 4.578125 -1.453125 C 3.296875 -2.734375 2.65625 -4.539062 2.65625 -6.875 C 2.65625 -9.4375 3.523438 -11.46875 5.265625 -12.96875 C 7.003906 -14.476562 9.390625 -15.25 12.421875 -15.28125 L 15.453125 -15.28125 L 15.453125 -17.96875 C 15.453125 -19.46875 15.113281 -20.535156 14.4375 -21.171875 C 13.769531 -21.816406 12.753906 -22.140625 11.390625 -22.140625 C 10.148438 -22.140625 9.140625 -21.769531 8.359375 -21.03125 C 7.585938 -20.289062 7.203125 -19.351562 7.203125 -18.21875 L 3.078125 -18.21875 C 3.078125 -19.507812 3.457031 -20.738281 4.21875 -21.90625 C 4.976562 -23.082031 6.003906 -24.003906 7.296875 -24.671875 C 8.585938 -25.335938 10.023438 -25.671875 11.609375 -25.671875 C 14.179688 -25.671875 16.140625 -25.03125 17.484375 -23.75 C 18.828125 -22.46875 19.515625 -20.601562 19.546875 -18.15625 L 19.546875 -5.421875 C 19.566406 -3.484375 19.832031 -1.800781 20.34375 -0.375 L 20.34375 0 Z M 10.5625 -3.28125 C 11.5625 -3.28125 12.519531 -3.5625 13.4375 -4.125 C 14.351562 -4.6875 15.023438 -5.382812 15.453125 -6.21875 L 15.453125 -12.234375 L 13.125 -12.234375 C 11.164062 -12.203125 9.617188 -11.757812 8.484375 -10.90625 C 7.347656 -10.0625 6.78125 -8.878906 6.78125 -7.359375 C 6.78125 -5.929688 7.066406 -4.894531 7.640625 -4.25 C 8.210938 -3.601562 9.1875 -3.28125 10.5625 -3.28125 Z M 10.5625 -3.28125 "/></g></g></g><g fill="#ffffff" fill-opacity="1"><g transform="translate(356.657263, 57.908226)"><g><path d="M 15.328125 -6.453125 C 15.328125 -7.335938 14.992188 -8.097656 14.328125 -8.734375 C 13.660156 -9.367188 12.375 -10.113281 10.46875 -10.96875 C 8.238281 -11.882812 6.671875 -12.671875 5.765625 -13.328125 C 4.859375 -13.984375 4.175781 -14.722656 3.71875 -15.546875 C 3.269531 -16.378906 3.046875 -17.375 3.046875 -18.53125 C 3.046875 -20.570312 3.796875 -22.269531 5.296875 -23.625 C 6.796875 -24.988281 8.710938 -25.671875 11.046875 -25.671875 C 13.492188 -25.671875 15.460938 -24.957031 16.953125 -23.53125 C 18.453125 -22.101562 19.203125 -20.269531 19.203125 -18.03125 L 15.09375 -18.03125 C 15.09375 -19.164062 14.710938 -20.132812 13.953125 -20.9375 C 13.191406 -21.738281 12.222656 -22.140625 11.046875 -22.140625 C 9.835938 -22.140625 8.882812 -21.820312 8.1875 -21.1875 C 7.5 -20.5625 7.15625 -19.71875 7.15625 -18.65625 C 7.15625 -17.820312 7.40625 -17.148438 7.90625 -16.640625 C 8.414062 -16.128906 9.632812 -15.453125 11.5625 -14.609375 C 14.613281 -13.410156 16.691406 -12.238281 17.796875 -11.09375 C 18.898438 -9.957031 19.453125 -8.507812 19.453125 -6.75 C 19.453125 -4.5625 18.695312 -2.8125 17.1875 -1.5 C 15.6875 -0.1875 13.671875 0.46875 11.140625 0.46875 C 8.515625 0.46875 6.382812 -0.28125 4.75 -1.78125 C 3.125 -3.289062 2.3125 -5.207031 2.3125 -7.53125 L 6.453125 -7.53125 C 6.503906 -6.125 6.929688 -5.023438 7.734375 -4.234375 C 8.546875 -3.441406 9.679688 -3.046875 11.140625 -3.046875 C 12.503906 -3.046875 13.539062 -3.351562 14.25 -3.96875 C 14.96875 -4.582031 15.328125 -5.410156 15.328125 -6.453125 Z M 15.328125 -6.453125 "/></g></g></g></svg>